<svg xmlns="http://www.w3.org/2000/svg" viewBox="0 0 436.24 232.87"><defs><style>.cls-1{fill:#231f20;}</style></defs><title>Client Logo Classic Ford Broncos</title><g id="Layer_2" data-name="Layer 2"><g id="Layer_1-2" data-name="Layer 1"><path class="cls-1" d="M38.47,152c2.32-.36,4.65-.72,7-1.06a1.34,1.34,0,0,0,1.11-1.26l0-29.18,6.9-.55a1.21,1.21,0,0,0,1.12-1.17v-5.66a1,1,0,0,0-1.11-1l-6.91.44q0-10.27,0-20.55l9.55-.19a1.12,1.12,0,0,0,1.11-1.09c0-2.16,0-4.33,0-6.49a1.09,1.09,0,0,0-1.11-1.07l-17.68,0a1.12,1.12,0,0,0-1.12,1.11v66.76A.94.94,0,0,0,38.47,152Z"></path><path class="cls-1" d="M75.52,147.42c7.19-.92,12.31-6.23,12.33-13L88,94.34c0-6.83-5.07-11.57-12.28-11.6s-12.34,5-12.35,12.16q0,21-.08,42C63.24,144.06,68.25,148.35,75.52,147.42ZM72.58,94.33c0-2.93,1.66-3.31,3.08-3.33s3,.3,3,3.19q-.06,20.7-.11,41.41c0,2.89-1.73,3.42-3,3.56s-3.07,0-3.06-2.95Z"></path><path class="cls-1" d="M97.77,144.34l7-.7a1.25,1.25,0,0,0,1.18-1.14l.06-17.26,2-.13q1.57,8.58,3.16,17.07a1,1,0,0,0,1.16.76q3.77-.34,7.54-.66a1.17,1.17,0,0,0,1.15-1.32q-2.3-9.27-4.59-18.66c3-2.11,4.75-5.47,4.77-10L121.18,95c0-7.64-5-11.88-12.21-11.89H98a1.12,1.12,0,0,0-1.18,1q-.1,29.61-.2,59.23A1,1,0,0,0,97.77,144.34ZM106.09,91l1.65,0c2,0,4.29.47,4.27,4.31l-.06,17.6c0,3.91-2.42,4.5-4.3,4.6l-1.65.09Z"></path><path class="cls-1" d="M130.84,141.39l11.16-.78c7.3-.48,12.36-4.7,12.38-12.05q0-17,.1-34c0-7.34-5-11.42-12.29-11.43H131a1.1,1.1,0,0,0-1.18,1q-.11,28.19-.2,56.38A1,1,0,0,0,130.84,141.39Zm8.32-50.8,1.88,0c2,0,4.28.47,4.27,4.15q-.06,17.1-.11,34.21c0,3.68-2.43,4.25-4.31,4.36l-1.88.11Z"></path><path class="cls-1" d="M178.88,138.79c3.57-.12,7.15-.22,10.72-.31,7.31-.18,12.36-3.12,12.36-8.47q0-6.75,0-13.52c0-3.66-1.65-5.33-4.29-6.27,2.56-.92,3.92-2.79,3.92-6q0-6.36,0-12.74c0-5.4-5-8.41-12.24-8.41H179a1,1,0,0,0-1.12.9q-.06,27-.11,53.93A1,1,0,0,0,178.88,138.79Zm8.23-48.51H189c1.57,0,3.45.24,3.45,2q0,6.42,0,12.83c0,1.87-2,2.07-3.46,2.09l-1.88,0Q187.11,98.76,187.11,90.28Zm0,23.44,2.26,0c1.57,0,3.46.19,3.45,2.06q0,6.75,0,13.5c0,1.87-2,2.09-3.46,2.12l-2.26,0Z"></path><path class="cls-1" d="M277.91,139.66q3.55.18,7.09.39a1,1,0,0,0,1.12-.87L286,110.44q3.71,14.57,7.4,29.38a1.18,1.18,0,0,0,1.11.81l6.76.46a1,1,0,0,0,1.12-.86q-.09-28.08-.19-56.17a1.06,1.06,0,0,0-1.13-1H294a1,1,0,0,0-1.12.93q0,14.83.1,29.65-3.7-15-7.4-29.84a1.1,1.1,0,0,0-1.11-.74h-6.75a1,1,0,0,0-1.12.92l.15,54.66A1.12,1.12,0,0,0,277.91,139.66Z"></path><path class="cls-1" d="M323.55,143.42c7.22.68,12.3-3.43,12.28-10.1v-2.09a1.19,1.19,0,0,0-1.13-1.09l-7.07-.53a1,1,0,0,0-1.12.9c0,.78,0,1.55,0,2.33,0,2.81-1.57,2.94-3,2.83s-3.08-.5-3.09-3.29q-.06-19.47-.14-38.95c0-2.72,1.72-3,3.08-3s3,.36,3,3.11c0,.72,0,1.44,0,2.16a1.09,1.09,0,0,0,1.13,1l7.06.16a1,1,0,0,0,1.13-1c0-.64,0-1.28,0-1.92,0-6.67-5.15-11.31-12.36-11.29S311,87.16,311.05,93.55q.07,19,.14,37.93C311.21,137.86,316.26,142.73,323.55,143.42Z"></path><path class="cls-1" d="M211.76,138.15l7.08,0a1,1,0,0,0,1.13-.9V121.46h2q1.62,7.95,3.24,15.93a1.1,1.1,0,0,0,1.12.76l7.66.08c.72,0,1.26-.51,1.11-1.08q-2.35-8.88-4.7-17.75c3-1.78,4.74-4.83,4.74-9.1q0-8.06,0-16.1c0-7.16-5-11.12-12.26-11.12h-11a1,1,0,0,0-1.13.9q0,26.64,0,53.26A1,1,0,0,0,211.76,138.15Zm9.86-47.92c2,0,4.29.48,4.29,4q0,8.1,0,16.19c0,3.6-2.41,4-4.29,4H220V90.22Z"></path><path class="cls-1" d="M255.62,139.22c7.24.24,12.35-3.8,12.33-9.92l-.09-36.12c0-6.18-5.13-10.46-12.35-10.45S243.19,87,243.2,93l.05,35.61C243.26,134.67,248.31,139,255.62,139.22Zm-.09-49.28c1.42,0,3,.32,3,2.87q0,18.21.08,36.43c0,2.55-1.73,2.81-3,2.77s-3.09-.39-3.1-2.93l-.06-36.31C252.44,90.23,254.1,89.94,255.53,89.94Z"></path><path class="cls-1" d="M355.38,146.77c7.2.88,12.28-3.37,12.26-10.43l-.09-41.57c0-7.13-5.13-12.06-12.35-12s-12.31,4.72-12.29,11.49q.07,19.86.13,39.71C343.06,140.64,348.11,145.88,355.38,146.77Zm-.16-55.86c1.43,0,3,.39,3,3.3q0,20.72.11,41.45c0,2.9-1.72,3.06-3,2.93s-3.08-.66-3.09-3.52l-.12-41C352.14,91.21,353.8,90.89,355.22,90.91Z"></path><path class="cls-1" d="M387.55,131.93c2.28,5.53,1.93,8.39,1.93,8.38,0,1.84-1.34,2.47-2.77,2.29s-3.07-1-3.07-3.81v-2.95a1.28,1.28,0,0,0-1.13-1.22l-6.91-.74a1,1,0,0,0-1.13,1c0,.51,0,1,0,1.54,0,0-.32,3.93,1.11,6.5l0,0a13.89,13.89,0,0,0,10.95,8.24c6.48,1,11.2-1.95,12-7.7h0c1.11-5-1.09-11.18-1.09-11.17q-5.87-15.55-11.77-30.31c-2.61-6-1.94-8.15-1.94-8.15a2.49,2.49,0,0,1,2.78-2.57,2.89,2.89,0,0,1,3,2.58,1.15,1.15,0,0,0,1.11,1l6.88.19a1.08,1.08,0,0,0,1.13-1.14,11.55,11.55,0,0,0-12-11.15c-6.52,0-11.26,3.54-12,9.06-1,5.25,1.41,11.59,1.41,11.61Q381.81,117.29,387.55,131.93Z"></path><path class="cls-1" d="M172.85,40.42a.39.39,0,0,0-.5.08A4.23,4.23,0,0,1,170,41.9a3.86,3.86,0,1,1-1.59-7.55,4.13,4.13,0,0,1,2.83.41.37.37,0,0,0,.49-.09l1.24-1.8a.33.33,0,0,0-.12-.51,7.19,7.19,0,0,0-10.66,7.44,7,7,0,0,0,8.31,5.08,6.86,6.86,0,0,0,4.22-2.7.39.39,0,0,0-.08-.51Z"></path><path class="cls-1" d="M190,38.69c-1.52.18-3,.37-4.55.58-.46-3.32-.93-6.65-1.39-10a.39.39,0,0,0-.43-.31l-2.37.35a.36.36,0,0,0-.32.41q.93,6.16,1.87,12.34a.36.36,0,0,0,.42.3q3.54-.53,7.09-1a.37.37,0,0,0,.32-.4l-.24-2A.35.35,0,0,0,190,38.69Z"></path><path class="cls-1" d="M203.14,27.07a.41.41,0,0,0-.35-.19h-.2a.41.41,0,0,0-.33.23q-2.74,6.54-5.15,13.12a.33.33,0,0,0,.36.46l2.09-.17a.71.71,0,0,0,.65-.5l.57-1.56c1.74-.13,3.47-.23,5.21-.32l.76,1.46c.19.35.35.45.69.44l2.11-.09a.33.33,0,0,0,.3-.5Q206.66,33.22,203.14,27.07Zm-1.38,8.76c.41-1.07.83-2.13,1.26-3.2h0c.56,1,1.11,2,1.66,3Z"></path><path class="cls-1" d="M221.52,31.84c-1.54-.63-2.14-1.16-2.13-1.86a1.13,1.13,0,0,1,1.26-.95,6.25,6.25,0,0,1,2.82,1.18c.17.14.53,0,.68-.22l1-1.43a.45.45,0,0,0-.1-.6,7.48,7.48,0,0,0-4.26-1.51c-3.11,0-4.64,1.87-4.62,3.74,0,2.26,2.14,3.51,3.8,4.17,1.32.52,2,1.14,2,1.94a1.21,1.21,0,0,1-1.35,1.11,6,6,0,0,1-2.73-1.06.51.51,0,0,0-.65.11l-.9,1.57c-.15.27-.09.34.1.53A6.25,6.25,0,0,0,220.74,40c2.78,0,4.54-1.86,4.61-3.8C225.44,33.66,223.05,32.44,221.52,31.84Z"></path><path class="cls-1" d="M237.88,27.27c-3.1-.26-4.76,1.54-4.88,3.4-.14,2.26,1.89,3.66,3.5,4.43,1.28.62,1.91,1.28,1.84,2.07a1.21,1.21,0,0,1-1.43,1,5.87,5.87,0,0,1-2.64-1.24.5.5,0,0,0-.67.07l-1,1.5c-.17.25-.12.33.06.53a6.21,6.21,0,0,0,4.17,1.77c2.78.23,4.66-1.54,4.87-3.47.27-2.56-2-3.94-3.52-4.65s-2.05-1.31-2-2a1.13,1.13,0,0,1,1.33-.86,6.18,6.18,0,0,1,2.73,1.38c.16.14.53,0,.69-.18l1.16-1.35a.47.47,0,0,0-.06-.61A7.55,7.55,0,0,0,237.88,27.27Z"></path><path class="cls-1" d="M253.88,29.32l-2.4-.35a.37.37,0,0,0-.42.3l-1.71,12.37a.37.37,0,0,0,.31.41c.75.1,1.51.21,2.26.33a.38.38,0,0,0,.41-.3q.94-6.18,1.87-12.35A.37.37,0,0,0,253.88,29.32Z"></path><path class="cls-1" d="M269.81,32.06a6.85,6.85,0,0,0-8.4,5.24,7,7,0,0,0,5.5,8,6.84,6.84,0,0,0,5-.75.37.37,0,0,0,.14-.49l-1.11-1.87a.4.4,0,0,0-.49-.13,4.24,4.24,0,0,1-2.74.31,3.86,3.86,0,1,1,1.63-7.54,4.17,4.17,0,0,1,2.42,1.53.37.37,0,0,0,.49.11l1.87-1.13a.33.33,0,0,0,.1-.51A6.83,6.83,0,0,0,269.81,32.06Z"></path><path class="cls-1" d="M200.78,176a6.86,6.86,0,0,0-2.22-3,3.34,3.34,0,0,0-2.29-.57,6.5,6.5,0,0,0-2.76.87c-3.16,1.68-8.47,6.53-8,11.5.34,3.73,5.59,5.24,8.4,7a1,1,0,0,1,.17,1.53,2.77,2.77,0,0,1-1.88.76c-2.12.19-4.69-1.42-6.22-2.46A4.57,4.57,0,0,0,183,191a5,5,0,0,0-1.12.21c-.5.23-.72.65-.15,1.23,3.18,3.06,6.86,4.24,9.52,4a6.59,6.59,0,0,0,4.77-2.31,4.82,4.82,0,0,0,1.16-3,2.37,2.37,0,0,0-1.26-1.77c-1.52-.9-6.71-2.53-6.81-4.95-.19-4.21,7.32-10.3,8.76-9.43.55.32-.3,2-1.09,3.45a7.23,7.23,0,0,0-1.34,3.94,2.73,2.73,0,0,0,1,1.9c.76.66,1.14.34,1.41-.28.44-.92,1.33-2.91,2.1-4.16A5,5,0,0,0,200.78,176Z"></path><path class="cls-1" d="M215.77,177.75c-.07-.8-.41-1.25-1.17-1.18-1.24.14-3.45,3-3.27,5a1.86,1.86,0,0,0,1.16,1.52c-1.54,4.63-4.87,10.23-8.52,10.55-1,.09-1.77-.95-1.92-2.62a7.88,7.88,0,0,1,.13-2.19,4.42,4.42,0,0,0,2.67.57,5.28,5.28,0,0,0,3.85-2.59,6.88,6.88,0,0,0,1.19-4,2.57,2.57,0,0,0-.43-1.17,8.55,8.55,0,0,0-2.44-1.7,2.31,2.31,0,0,0-1.27-.18c-2.08.19-4.89,2.5-6.45,6.39a9.56,9.56,0,0,0-.72,4.3,4.79,4.79,0,0,0,5.67,4.57c4.45-.47,8-5.27,10.39-11.78a7.39,7.39,0,0,0,2.65-.87,17.94,17.94,0,0,0-3,6,6.33,6.33,0,0,0-.18,2,3.44,3.44,0,0,0,3.91,3.44,6.73,6.73,0,0,0,4-2.08,2.86,2.86,0,0,0,3.12,1.44A6.78,6.78,0,0,0,230,190a4.83,4.83,0,0,0,5,2.39,9.5,9.5,0,0,0,6-3.34c1.45,2.16,3.67,2.54,5.85,2.28a7.84,7.84,0,0,0,6.31-4.65,3,3,0,0,0,.15-2.56c-.31-.56-.88-.76-1.14.11a7.91,7.91,0,0,1-2.81,4.29,7,7,0,0,0,.37-2.79c-.1-2-.79-4.31-1-6.9,0-.47-.06-1.1-.06-1.54,1-2,.67-2.75-.32-2.66a2.85,2.85,0,0,0-1.72.93,4,4,0,0,0-1.17,3c-.8,1.66-1.91,3.67-3,5.49-.19-.86-.76-1-1.43-.31a3.75,3.75,0,0,0-.92,2.95l0,.18c-1.31,2-3.17,3.89-5.39,4.09-1.09.1-1.85-1-2-2.58a7.81,7.81,0,0,1,.13-2.18,4.73,4.73,0,0,0,2.67.57c3.21-.29,5.32-4.34,5.12-6.53a2.62,2.62,0,0,0-.49-1.32,6.8,6.8,0,0,0-2.43-1.7,2.41,2.41,0,0,0-1.31-.17c-2.11.18-4.9,2.38-6.45,6.43a9.7,9.7,0,0,0-.78,3.29c-.93,2.47-2.53,4.88-3.93,5-.4,0-.57-.28-.63-.86a6.36,6.36,0,0,1,.32-2.24c.49-1.51,1.92-4.41,2.48-6,.78-1.91.35-3.45-.41-4.12-.52-.5-.95-.39-1.44.39a48.28,48.28,0,0,0-3.76,8.87c-.93,2.43-2.64,4.54-3.86,4.66-.51,0-.86-.55-.94-1.5a6.31,6.31,0,0,1,.11-1.6,23.2,23.2,0,0,1,3.47-6.53,2.06,2.06,0,0,0,.49-1.44,4.68,4.68,0,0,0-1.32-2.42c-.49-.55-1-.25-1.53.17a10.93,10.93,0,0,1-3,1.82A11.18,11.18,0,0,0,215.77,177.75Zm-12.93,9c1.23-3.09,3.53-5.43,4.23-5,.39.26-.29,2.12-1.19,3.53-.64,1.05-1.53,2.2-2.48,2.28a1.71,1.71,0,0,1-.83-.14A6.94,6.94,0,0,1,202.84,186.71Zm43-4.62c.16,1,.31,2.15.41,3.31.21,2.38,0,4.23-.72,4.3s-1.68-1.14-2.28-2.81C244.23,185.22,245.11,183.56,245.86,182.09ZM237.93,179c.43.29-.18,2.08-1.12,3.6-.64,1.05-1.71,2.25-2.59,2.33a1.55,1.55,0,0,1-.82-.18C234.84,181.05,237.34,178.58,237.93,179Z"></path><path class="cls-1" d="M229.11,178.33a1.63,1.63,0,0,0,1.3-2c-.1-1.06-1.2-2.29-2.22-2.2a1.91,1.91,0,0,0-1.43,2.12A2.29,2.29,0,0,0,229.11,178.33Z"></path><path class="cls-1" d="M434.16,55.83H307.22V16.6l-3.66-1.35a247,247,0,0,0-170.88,0L129,16.6V55.83H2.08A2.08,2.08,0,0,0,0,57.91v128.2a2.08,2.08,0,0,0,2.53,2l4.26-.93A1034.32,1034.32,0,0,1,129,169.17v19.68a2.07,2.07,0,0,0,1.18,1.87l87,41.94a2,2,0,0,0,.9.21,2.09,2.09,0,0,0,.91-.21l87-41.94a2.06,2.06,0,0,0,1.17-1.87V169.17a1034,1034,0,0,1,122.23,18.05l4.26.93a2.08,2.08,0,0,0,2.53-2V57.91A2.08,2.08,0,0,0,434.16,55.83Zm-294-31.39a235.54,235.54,0,0,1,155.83,0V55.83H140.21ZM296,183.13l-77.92,37.55L140.2,183.13V168.26q39-3,77.92-3t77.92,3Zm129-8.21a1039.83,1039.83,0,0,0-413.88,0V67H425.06Z"></path><path class="cls-1" d="M232.54,198.16c-10.88-2.35-23,1.9-24.71,2.71s0,2.36,0,2.36c1,.84,3.85-.48,3.85-.48,12.78-5.29,18.84-2.93,20.47-2.65,1.23.21,1.7-.09,1.85-.79S232.54,198.16,232.54,198.16Z"></path></g></g></svg>