<svg xmlns="http://www.w3.org/2000/svg" width="218.24" height="74.75" viewBox="0 0 218.24 74.75"><title>Client Logo Fumo</title><g id="b972fffe-2b43-448f-a8ae-c59895863be8" data-name="Layer 2"><g id="ba666c1a-8be8-4c6e-8311-26ff41b39d95" data-name="Layer 1"><path d="M189.68,17.63a28.53,28.53,0,0,0-21.71,10,28.5,28.5,0,0,0-43.41,0A28.54,28.54,0,0,0,74.29,46.19a14.86,14.86,0,0,1-29.72,0V43.4H30.87v2.79a28.56,28.56,0,0,0,57.12,0,14.86,14.86,0,0,1,29.72,0V73.65h13.7V46.19a14.86,14.86,0,1,1,29.71,0,28.56,28.56,0,1,0,28.56-28.56Zm0,43.42a14.86,14.86,0,1,1,14.86-14.86A14.88,14.88,0,0,1,189.68,61.05Z"></path><path d="M13.7,28.56A14.88,14.88,0,0,1,28.56,13.7h10V0h-10A28.59,28.59,0,0,0,0,28.56V73.65H13.7V43.4H30.85V29.7H13.7Z"></path></g></g></svg>