<svg version="1.1" id="Layer_1" xmlns="http://www.w3.org/2000/svg" xmlns:xlink="http://www.w3.org/1999/xlink" x="0px" y="0px" width="382.9px" height="52.7px" viewBox="0 0 382.9 52.7" style="enable-background:new 0 0 382.9 52.7;" xml:space="preserve">
<g>
	<path d="M66.9,37v-3.8h15.1l0,0V19.3H66.9v-4H83V1.1H50.6v12.4l-1.3-1.9c-2.6-3.8-5.8-6.7-9.6-8.7C36,1,31.6,0.1,26.8,0.1
		c-3.7,0-7.2,0.6-10.5,1.9c-3.2,1.3-6.2,3.1-8.7,5.6C5.1,10,3.2,12.9,1.9,16C0.6,19.1,0,22.6,0,26.3c0,3.6,0.7,7,2,10.3
		c1.3,3.3,3.2,6.1,5.5,8.5c2.5,2.5,5.4,4.4,8.5,5.6c3.1,1.2,6.8,1.8,10.7,1.8c8.2,0,14.6-2.4,19.2-7.2c2-2.1,3.5-4.6,4.6-7.4v13.5
		h25.2l5-14.4H66.9z M50.6,20.6H24v13.8h11.9c-0.5,1-1.2,1.9-2.3,2.6c-1.8,1.3-4,2-6.8,2c-3.2,0-5.6-1-7.4-3.1
		c-1.8-2.1-2.8-5.2-2.8-9.1c0-3.8,0.9-6.9,2.8-9c1.8-2.1,4.2-3.1,7.4-3.1c1.7,0,3.2,0.4,4.5,1.1c1.4,0.7,2.6,1.9,3.7,3.4l1,1.4
		l14.5-7V20.6z"></path>
	<path d="M164.8,17.5c0-2.6-0.5-5.1-1.5-7.3c-1-2.3-2.5-4.1-4.5-5.6c-1.7-1.3-3.7-2.2-6-2.7c-2.2-0.5-5.9-0.8-11.3-0.8h-15.2v35.8
		L114,1.1H95.3L77.9,51.5h16.9l2.4-8.3h14.9l2.3,8.3h16.9l0,0h10.8V38.8l7.4,12.7h10.2l1.7-10.9l-5.9-8.7c2.5-1,4.6-2.4,6.1-4.4
		C163.8,24.9,164.8,21.6,164.8,17.5z M101.2,30.1l3.5-11.6l3.6,11.6H101.2z M147.3,22c-0.6,0.5-1.9,1-4.8,1h-0.3v-8.1h0.5
		c3,0,4.2,0.6,4.6,1c0.7,0.6,1,1.7,1,3.4C148.3,21,147.7,21.7,147.3,22z"></path>
	<path d="M382.9,15.3V1.1h-32.4v4.3l-1.4-0.9c-2.2-1.5-4.6-2.6-7.1-3.4C339.6,0.4,337,0,334.2,0c-5.2,0-9.6,1.6-12.9,4.7
		c-3.1,3-4.8,6.8-5,11.3c-1.3-3.1-3.2-5.9-5.7-8.3c-2.5-2.5-5.4-4.4-8.7-5.7c-6.6-2.7-14-2.6-20.5,0c-3.3,1.3-6.2,3.2-8.6,5.7
		c-2.5,2.4-4.4,5.1-5.7,8.1c-1.3-3-3.2-5.8-5.6-8.1c-2.5-2.5-5.4-4.4-8.7-5.7c-6.6-2.7-14-2.6-20.5,0c-3.3,1.3-6.2,3.2-8.6,5.7
		c-2.6,2.5-4.5,5.3-5.9,8.5c-0.1,0.3-0.2,0.6-0.3,0.9l-2.5-16h-15.8l-7,23.6l-6.9-23.6c0,0-15.8,0-15.7,0l-7.8,50.3h15.9l2.8-20.9
		l6.1,20.9h11.5l6-20.7l2.8,20.7h15.9l-1.4-9.1c0.7,0.9,1.4,1.8,2.2,2.6c2.5,2.5,5.4,4.4,8.6,5.7c3.3,1.3,6.7,2,10.3,2
		c3.5,0,7-0.7,10.2-2c3.3-1.3,6.2-3.2,8.8-5.7c2.4-2.4,4.3-5.1,5.6-8.1c1.3,3,3.2,5.8,5.7,8.1c2.5,2.5,5.4,4.4,8.6,5.7
		c3.3,1.3,6.7,2,10.3,2c3.5,0,7-0.7,10.2-2c3.3-1.3,6.2-3.2,8.8-5.7c2.5-2.5,4.5-5.3,5.8-8.5c1.3-3.1,2-6.6,2-10.1
		c0-0.5-0.1-1.1-0.2-1.6c0.4,0.6,0.8,1.2,1.3,1.7c2.2,2.3,5.6,4,10.6,5.3c4.1,1.1,5.2,1.9,5.5,2.1c0.3,0.3,0.7,0.8,0.7,2
		c0,0.8-0.3,1.4-0.9,1.9c-1.6,1.3-4.5,1.2-7.3-0.4c-1.6-0.9-3.5-2.4-5.2-4.4l-2.9-3.5c-0.3,2.7-0.8,5.3-1.8,7.7
		c-1.1,2.6-2.7,5-4.6,7.2l0.9,0.8c2.6,2.5,5.4,4.4,8.3,5.6c2.9,1.2,6.1,1.8,9.6,1.8c5.9,0,10.7-1.7,14.3-5c1.7-1.5,2.9-3.3,3.8-5.3
		v9.1h32.4V37h-16.1v-3.8H382v-14h-15.1v-4H382.9z M249.7,34.8c-1.9,2.1-4.2,3.2-7.2,3.2c-3,0-5.3-1-7.2-3.1
		c-1.9-2.2-2.9-4.9-2.9-8.4c0-3.4,1-6.2,2.9-8.4c1.9-2.1,4.2-3.2,7.2-3.2c2.9,0,5.2,1.1,7.1,3.2c2,2.2,3,5,3,8.4
		C252.7,29.8,251.7,32.6,249.7,34.8z M298.9,34.8c-1.9,2.1-4.2,3.2-7.2,3.2c-3,0-5.3-1-7.2-3.1c-1.9-2.2-2.9-4.9-2.9-8.4
		c0-3.4,1-6.2,2.9-8.4c1.9-2.1,4.2-3.2,7.2-3.2c2.9,0,5.2,1.1,7.1,3.2c2,2.2,3,5,3,8.4C301.8,29.8,300.8,32.6,298.9,34.8z
		 M350.5,26.8c-0.6-1.2-1.3-2.4-2.2-3.3c-1.9-1.9-5.5-3.6-11.1-5.1l-0.6-0.2c-2.8-0.8-3.8-1.4-4-1.6c-0.3-0.2-0.5-0.5-0.5-1.2
		c0-0.5,0.2-0.8,0.6-1.2c1.2-1,3.8-0.9,6.2,0.1c1.3,0.5,2.6,1.4,3.9,2.4l2.1,1.8l5.7-13.1V26.8z"></path>
</g>
</svg>