<svg xmlns="http://www.w3.org/2000/svg" width="383" height="41.01" viewBox="0 0 383 41.01"><title>Client Logo GoCardless</title><g id="9a024b9b-b37c-4e5a-87e9-0a355612fe5f" data-name="Layer 2"><g id="eb236cb6-5382-4560-951b-bed1540ea506" data-name="Layer 1"><path d="M20.93,41C8.51,41,0,32.33,0,20.76H0A20.38,20.38,0,0,1,20.76.17C27.9.17,32.16,2,36.41,5.61L31,12.25C27.9,9.7,25.18,8.17,20.59,8.17,14.12,8.17,9,13.78,9,20.59H9C9,27.73,14.12,33,21.1,33a15,15,0,0,0,8.34-2.38V25H20.59V17.53H37.77V34.71A26,26,0,0,1,20.93,41"></path><path d="M63.46.17A20,20,0,0,0,43.05,20.59h0A19.91,19.91,0,0,0,63.46,40.84,20.06,20.06,0,0,0,83.88,20.42h0A19.92,19.92,0,0,0,63.46.17ZM75,20.59c0,6.8-4.76,12.25-11.57,12.25S51.89,27.22,51.89,20.42h0c0-6.81,4.77-12.25,11.57-12.25S75,13.78,75,20.59Z"></path><path d="M108.55,41c-11.06,0-19.39-9-19.39-20.42C89.16,9.36,97.32.17,108.72.17c7,0,11.23,2.55,15.15,6.3L120.8,9.7c-3.23-3.23-6.8-5.45-12.08-5.45-8.5,0-15,7-15,16.34,0,9.19,6.47,16.33,15,16.33,5.28,0,8.85-2,12.42-5.61L124,34.2C120.12,38.28,115.7,41,108.55,41"></path><path d="M148.71,1h-4.09l-17.69,39.3h4.42L136,30h21.1l4.59,10.37h4.76ZM137.82,26l8.85-19.9L155.51,26Z"></path><path d="M192.78,24.16c6.12-1,10.38-4.93,10.38-11.4,0-7.15-5.45-11.74-14-11.74H172.7v39.3H177V25h10.89L198.9,40.32h5.45ZM177.12,21.1V5.1h11.74c6.13,0,9.87,2.9,9.87,7.83,0,5.11-4.08,8.17-9.87,8.17Z"></path><path d="M224.76,1H211v39.3h13.78c12.42,0,20.93-8.67,21.1-19.73C245.69,9.53,237.18,1,224.76,1Zm0,35.22h-9.18V5.1h9.18c10,0,16.34,6.81,16.34,15.66C241.1,29.44,234.63,36.24,224.76,36.24Z"></path><polygon points="252.67 1.02 257.26 1.02 257.26 36.24 279.89 36.24 279.89 40.33 252.67 40.33 252.67 1.02"></polygon><polygon points="313.24 5.1 290.44 5.1 290.44 18.55 310.69 18.55 310.69 22.46 290.44 22.46 290.44 36.24 313.41 36.24 313.41 40.33 286.19 40.33 286.19 1.02 313.24 1.02 313.24 5.1"></polygon><path d="M335.7,18.38c8.51,1.87,12.42,5.1,12.42,11.23,0,6.8-5.44,11.23-13.1,11.23a21.85,21.85,0,0,1-15.65-6.3l2.72-3.23c3.91,3.74,7.82,5.61,13.1,5.61,5.1,0,8.51-2.72,8.51-6.8,0-3.75-1.88-6-10-7.66-8.85-2-12.93-4.93-12.93-11.57C320.73,4.59,326,0,333.32,0a20.26,20.26,0,0,1,13.44,4.76l-2.55,3.58a16.22,16.22,0,0,0-11.06-4.26c-4.94,0-8.17,2.9-8.17,6.47.34,3.91,2.21,6.12,10.72,7.83"></path><path d="M370.58,18.38c8.51,1.87,12.42,5.1,12.42,11.23,0,6.8-5.44,11.23-13.1,11.23a21.85,21.85,0,0,1-15.65-6.3L357,31.31c3.91,3.74,7.82,5.61,13.1,5.61,5.1,0,8.51-2.72,8.51-6.8,0-3.75-1.88-6-10-7.66-8.85-2-12.93-4.93-12.93-11.57C355.61,4.59,360.88,0,368.2,0a20.26,20.26,0,0,1,13.44,4.76l-2.55,3.58A16.22,16.22,0,0,0,368,4.08c-4.94,0-8.17,2.9-8.17,6.47.17,3.91,2.21,6.12,10.72,7.83"></path></g></g></svg>