<svg xmlns="http://www.w3.org/2000/svg" width="300" height="41.76" viewBox="0 0 300 41.76"><title>New Legend</title><g id="15d90d66-f8fa-4392-a637-8c799a9689c0" data-name="Layer 2"><g id="f5abc3b0-f258-478f-9502-2992c9e16cdc" data-name="Layer 1"><path d="M104.18,41.76H58.12a.88.88,0,0,1-.75-.42l-24.95-40A.89.89,0,0,1,33.18,0H79.24A.88.88,0,0,1,80,.42l25,40A.89.89,0,0,1,104.18,41.76Z" fill="#1c1c1e" opacity="0.5"></path><path d="M136,0H96.76A.89.89,0,0,0,96,.42L90.87,8.65c2.4,3.86,5.7,9.15,9,14.37l5.84,3.4L111.52,23l5.85,3.41,5.84-3.4L136.73,1.36A.89.89,0,0,0,136,0Z" fill="#1c1c1e"></path><path d="M117.37,26.42,111.52,23l-5.85,3.41L99.83,23l10.94,17.53a.89.89,0,0,0,1.51,0L123.21,23Z" fill="#1c1c1e" opacity="0.5"></path><path d="M.89,41H40.11a.88.88,0,0,0,.75-.42L46,32.32,37,18l-5.85-3.4L25.34,18l-5.85-3.41L13.65,18,.14,39.61A.89.89,0,0,0,.89,41Z" fill="#1c1c1e"></path><path d="M19.49,14.55,25.34,18l5.85-3.41L37,18,26.1.42a.89.89,0,0,0-1.51,0L13.65,18Z" fill="#1c1c1e" opacity="0.5"></path><path d="M153.15,31.83V9.93h3l4.74,13.19H161V9.93h3.14v21.9h-3l-4.79-13.17h-.07V31.83Z" fill="#1c1c1e"></path><path d="M170,31.83V9.93h9.35v3h-6.21v6.43h5.41v3h-5.41v6.43h6.21v3.14Z" fill="#1c1c1e"></path><path d="M200.73,9.93l-3.26,21.9h-2.95l-2.4-14.21h-.06l-2.37,14.21h-2.95l-3.27-21.9h3.33l1.57,13.9h.06l2.46-13.9h2.4l2.55,14.24h.06l1.51-14.24Z" fill="#1c1c1e"></path><path d="M214.57,31.83V9.93h3.14V28.69h6.21v3.14Z" fill="#1c1c1e"></path><path d="M228,31.83V9.93h9.36v3h-6.22v6.43h5.42v3h-5.42v6.43h6.22v3.14Z" fill="#1c1c1e"></path><path d="M242.3,15.1a5.59,5.59,0,0,1,.46-2.34A5,5,0,0,1,244,11.07a5.32,5.32,0,0,1,1.67-1,5.45,5.45,0,0,1,3.79,0,5.87,5.87,0,0,1,1.71,1,5,5,0,0,1,1.19,1.69,5.59,5.59,0,0,1,.47,2.34v.52h-3.14V15.1a2.09,2.09,0,0,0-.63-1.68,2.34,2.34,0,0,0-3,0,2.09,2.09,0,0,0-.63,1.68V26.66a2.09,2.09,0,0,0,.63,1.68,2.34,2.34,0,0,0,3,0,2.09,2.09,0,0,0,.63-1.68v-4.4h-2v-3h5.16v7.35a5.5,5.5,0,0,1-.47,2.37,4.75,4.75,0,0,1-1.19,1.63,5.55,5.55,0,0,1-1.71,1,5.61,5.61,0,0,1-3.79,0,5,5,0,0,1-1.67-1A4.71,4.71,0,0,1,242.76,29a5.51,5.51,0,0,1-.46-2.37Z" fill="#1c1c1e"></path><path d="M258.66,31.83V9.93H268v3H261.8v6.43h5.41v3H261.8v6.43H268v3.14Z" fill="#1c1c1e"></path><path d="M273,31.83V9.93h3l4.74,13.19h.06V9.93h3.13v21.9H281l-4.8-13.17h-.06V31.83Z" fill="#1c1c1e"></path><path d="M289.85,31.83V9.93h4.64a5.37,5.37,0,0,1,4.11,1.48,5.83,5.83,0,0,1,1.4,4.18V25.83a6.14,6.14,0,0,1-1.49,4.54,5.91,5.91,0,0,1-4.29,1.46ZM293,12.88v16h1.44a2.34,2.34,0,0,0,1.88-.66,3.23,3.23,0,0,0,.55-2.08V15.59a3.31,3.31,0,0,0-.52-2,2.24,2.24,0,0,0-1.91-.71Z" fill="#1c1c1e"></path></g></g></svg>