<svg xmlns="http://www.w3.org/2000/svg" viewBox="0 0 249.95 71.47"><defs><style>.cls-1{fill:#1d1d1b;}</style></defs><title>Client Logo Red Lorry Yellow Lorry</title><g id="Layer_2" data-name="Layer 2"><g id="Layer_1-2" data-name="Layer 1"><path class="cls-1" d="M114.14,23.75v7.12h-3.77V13.1h7.82c3.87,0,6,2.12,6,4.88a4.26,4.26,0,0,1-2.58,4.2c.87.33,2.21,1.24,2.21,4.44v.87a13.29,13.29,0,0,0,.26,3.38h-3.66a12.68,12.68,0,0,1-.36-4v-.25c0-1.94-.49-2.87-3.35-2.87Zm0-3.07h3.22c2.09,0,2.92-.8,2.92-2.27s-1-2.27-2.84-2.27h-3.3Z"></path><path class="cls-1" d="M129.13,25c0,1.68.85,3.3,2.69,3.3a2.13,2.13,0,0,0,2.34-1.42h3.69c-.46,1.63-1.93,4.31-6.11,4.31-4.41,0-6.32-3.27-6.32-6.78,0-4.21,2.14-7.2,6.45-7.2,4.56,0,6.13,3.33,6.13,6.66A8,8,0,0,1,138,25Zm5.16-2.27c0-1.55-.64-2.86-2.45-2.86s-2.48,1.21-2.63,2.86Z"></path><path class="cls-1" d="M152.35,13.07V27.21c0,1.21,0,2.45,0,3.66h-3.53a14,14,0,0,1-.18-1.39c-.65,1.06-1.81,1.7-3.8,1.7-3.37,0-5.52-2.71-5.52-6.89s2.27-7.09,6.07-7.09c1.93,0,3,.7,3.25,1.29V13.07ZM146,28.22c2.53,0,2.84-2.12,2.84-4,0-2.29-.33-4-2.76-4-1.93,0-2.91,1.52-2.91,4S144.15,28.22,146,28.22Z"></path><path class="cls-1" d="M161.06,13.1h3.84V27.73h8.87l-.44,3.14H161.06Z"></path><path class="cls-1" d="M187.66,24.16c0,4.06-2.43,7-6.66,7s-6.55-3-6.55-6.94,2.5-7,6.73-7C185.1,17.2,187.66,20,187.66,24.16Zm-9.47,0c0,2.58,1.11,4.1,2.89,4.1s2.84-1.52,2.84-4.07c0-2.79-1-4.1-2.89-4.1S178.19,21.38,178.19,24.19Z"></path><path class="cls-1" d="M189.55,21.15c0-1.34,0-2.5,0-3.64h3.64c.05.31.1,1.63.1,2.35a4.31,4.31,0,0,1,4.28-2.66v3.54c-2.68-.08-4.28.64-4.28,4.3v5.83h-3.71Z"></path><path class="cls-1" d="M198.86,21.15c0-1.34,0-2.5,0-3.64h3.64c.05.31.1,1.63.1,2.35a4.31,4.31,0,0,1,4.28-2.66v3.54c-2.68-.08-4.28.64-4.28,4.3v5.83h-3.72Z"></path><path class="cls-1" d="M211.56,17.51c1.37,4.62,2.58,8.72,2.79,10h0c.28-1.34,1.08-4.34,2.66-10h3.69l-4.49,13.75c-1.27,3.84-2.35,5-5.55,5a16.51,16.51,0,0,1-1.73-.11v-3c.26,0,.65,0,1,0,1.37,0,2-.47,2.55-1.94l-4.87-13.77Z"></path><path class="cls-1" d="M115.33,57.8V51.51a1,1,0,0,0-.15-.57L109,40h4.36c1.37,2.69,3.15,6.24,4,8.18.77-1.86,2.71-5.62,4-8.18h4l-6.21,10.86a1,1,0,0,0-.13.57V57.8Z"></path><path class="cls-1" d="M126.77,51.92c0,1.68.85,3.31,2.68,3.31a2.14,2.14,0,0,0,2.35-1.42h3.69c-.47,1.62-1.94,4.3-6.12,4.3-4.41,0-6.32-3.27-6.32-6.78,0-4.2,2.14-7.2,6.45-7.2,4.57,0,6.14,3.33,6.14,6.66a8,8,0,0,1,0,1.13Zm5.16-2.27c0-1.54-.65-2.86-2.45-2.86S127,48,126.84,49.65Z"></path><path class="cls-1" d="M137.51,57.8V40h3.71V57.8Z"></path><path class="cls-1" d="M143.88,57.8V40h3.71V57.8Z"></path><path class="cls-1" d="M162.69,51.1c0,4-2.43,7-6.66,7s-6.55-3-6.55-6.93c0-4.13,2.5-7,6.73-7C160.13,44.13,162.69,46.92,162.69,51.1Zm-9.47,0c0,2.58,1.11,4.11,2.89,4.11s2.83-1.53,2.83-4.08c0-2.78-1-4.1-2.88-4.1S153.22,48.31,153.22,51.12Z"></path><path class="cls-1" d="M166.81,44.44c1.21,5.37,1.85,8.41,2.11,10.09H169c.29-1.5.67-3.59,2.3-10.09h3.43c1.5,6.58,2,8.52,2.14,9.93h0c.28-1.36.69-3.35,2.24-9.93h3.66l-4,13.36h-4c-1.11-5-1.72-7.73-2-9.49h0c-.21,1.68-.93,4.7-2.11,9.49h-4l-3.79-13.36Z"></path><path class="cls-1" d="M190.29,40h3.84V54.66H203l-.44,3.14H190.29Z"></path><path class="cls-1" d="M216.89,51.1c0,4-2.42,7-6.65,7s-6.55-3-6.55-6.93c0-4.13,2.5-7,6.73-7C214.34,44.13,216.89,46.92,216.89,51.1Zm-9.46,0c0,2.58,1.1,4.11,2.89,4.11s2.83-1.53,2.83-4.08c0-2.78-1-4.1-2.89-4.1C208.56,47.05,207.43,48.31,207.43,51.12Z"></path><path class="cls-1" d="M218.78,48.08c0-1.34,0-2.5,0-3.64h3.64c0,.31.1,1.63.1,2.35a4.31,4.31,0,0,1,4.28-2.66v3.54c-2.68-.08-4.28.64-4.28,4.3V57.8h-3.72Z"></path><path class="cls-1" d="M228.1,48.08c0-1.34,0-2.5,0-3.64h3.64c0,.31.1,1.63.1,2.35a4.33,4.33,0,0,1,4.29-2.66v3.54c-2.69-.08-4.29.64-4.29,4.3V57.8H228.1Z"></path><path class="cls-1" d="M240.79,44.44c1.37,4.62,2.58,8.72,2.79,10h0c.28-1.34,1.08-4.33,2.65-10H250l-4.49,13.75c-1.26,3.84-2.34,5-5.54,5-.34,0-1.08,0-1.73-.1v-3a9.41,9.41,0,0,0,.95,0c1.37,0,2-.46,2.56-1.93l-4.88-13.78Z"></path><path class="cls-1" d="M76.6,51.91,92.77,35.74,76.6,19.56h0l-2.18-2.17-1.21-1.22h0L57,0,46.39,10.65,35.74,0,19.56,16.17h0l-3,3-.38.38h0L0,35.74,19.56,55.3h0L35.74,71.47,46.39,60.82,57,71.47,73.21,55.3h0l1.08-1.08,2.31-2.31ZM86,35.74,73.21,48.52,60.42,35.74,73.21,23Zm-46.88,0,7.27-7.26,7.26,7.26h0L46.39,43l-7.27-7.26h0ZM57,6.77,69.83,19.56,57,32.35l-7.27-7.27,5.53-5.52L49.77,14ZM44.25,19.56l2.14-2.14,2.13,2.14L46.39,21.7Zm-21.3,0L35.74,6.77,43,14l-5.52,5.52L43,25.08l-7.26,7.27Zm-3.39,29L6.77,35.74,19.56,23,32.35,35.74,26,42.13ZM35.74,64.7,23,51.91l6.39-6.39,6.4-6.4L43,46.39l-5.52,5.52L43,57.43ZM48.52,51.91l-2.13,2.14-2.14-2.14,2.14-2.14ZM57,64.7l-7.27-7.27,5.53-5.52-5.53-5.52L57,39.12,69.83,51.91Z"></path></g></g></svg>