<svg xmlns="http://www.w3.org/2000/svg" viewBox="0 0 244.46 56.17"><defs><style>.cls-1{fill:#231f20;}</style></defs><title>Client Logo SB Joinery</title><g id="Layer_2" data-name="Layer 2"><g id="Layer_1-2" data-name="Layer 1"><path class="cls-1" d="M74.2,21.05H69.44V20a5.08,5.08,0,0,0-.76-2.82A2.87,2.87,0,0,0,66.09,16a3.22,3.22,0,0,0-1.61.37,2.82,2.82,0,0,0-1,1A4.24,4.24,0,0,0,63,18.65a9.28,9.28,0,0,0-.14,1.61c0,.65,0,1.2.07,1.65a3.15,3.15,0,0,0,.35,1.17,2.77,2.77,0,0,0,.82.86,7.12,7.12,0,0,0,1.47.74l3.63,1.45a8.9,8.9,0,0,1,2.56,1.42,5.69,5.69,0,0,1,1.52,1.91A8.47,8.47,0,0,1,74,32a25.94,25.94,0,0,1,.19,3.24,17,17,0,0,1-.42,3.89,8.2,8.2,0,0,1-1.38,3.08,6.49,6.49,0,0,1-2.54,2A9,9,0,0,1,66,45a8.39,8.39,0,0,1-3.22-.61,7.75,7.75,0,0,1-4.89-7.26V35.31h4.75V36.8a3.89,3.89,0,0,0,.77,2.35A3,3,0,0,0,66,40.2a4.2,4.2,0,0,0,1.88-.35,2.44,2.44,0,0,0,1-1,4,4,0,0,0,.44-1.56c.06-.62.09-1.31.09-2.05a20.59,20.59,0,0,0-.09-2.14,3.31,3.31,0,0,0-.4-1.36,2.36,2.36,0,0,0-.83-.83,11.77,11.77,0,0,0-1.42-.7l-3.41-1.4a7.54,7.54,0,0,1-4.12-3.33,11.43,11.43,0,0,1-1.05-5.2,11.8,11.8,0,0,1,.52-3.54,8.16,8.16,0,0,1,1.51-2.88,7.17,7.17,0,0,1,2.54-1.94,8.36,8.36,0,0,1,3.59-.72,7.9,7.9,0,0,1,3.23.65A8.07,8.07,0,0,1,72,13.6,7.75,7.75,0,0,1,73.64,16a7.06,7.06,0,0,1,.56,2.73Z"></path><path class="cls-1" d="M80.61,11.5h6.94a9.66,9.66,0,0,1,3.89.7,7.31,7.31,0,0,1,2.63,1.86,7.1,7.1,0,0,1,1.47,2.68A11.34,11.34,0,0,1,96,19.88V21.1a10.54,10.54,0,0,1-.21,2.28A5.54,5.54,0,0,1,95.14,25a5.27,5.27,0,0,1-1,1.23,9,9,0,0,1-1.4,1,5.09,5.09,0,0,1,2.47,2.35A9.25,9.25,0,0,1,96,33.77v1.86q0,4.38-2.12,6.71t-6.78,2.33H80.61Zm4.75,13.6H87.5c1.59,0,2.65-.39,3.19-1.19a6,6,0,0,0,.82-3.47,5.21,5.21,0,0,0-.91-3.35A4,4,0,0,0,87.32,16h-2Zm0,14.82h2a5,5,0,0,0,2.26-.42,2.9,2.9,0,0,0,1.23-1.17,4.44,4.44,0,0,0,.52-1.77c.06-.68.09-1.43.09-2.23a15.39,15.39,0,0,0-.14-2.19,3.63,3.63,0,0,0-.58-1.56,2.8,2.8,0,0,0-1.24-1,5.56,5.56,0,0,0-2.09-.32h-2.1Z"></path><path class="cls-1" d="M121.15,36.84a8.69,8.69,0,0,1-.56,3.1A7.79,7.79,0,0,1,119,42.53a7.68,7.68,0,0,1-2.53,1.77A8.53,8.53,0,0,1,113,45a6.71,6.71,0,0,1-3.79-1,12.78,12.78,0,0,1-2.4-2l3.73-3a4.91,4.91,0,0,0,1.18.86,3.1,3.1,0,0,0,1.42.35,3.54,3.54,0,0,0,1-.17,2.6,2.6,0,0,0,1-.6,3.61,3.61,0,0,0,.84-1.21,5,5,0,0,0,.35-2V11.5h4.75Z"></path><path class="cls-1" d="M128.28,19.33a8.38,8.38,0,0,1,.7-3.54,7.21,7.21,0,0,1,1.84-2.54,7.83,7.83,0,0,1,2.56-1.52,8.3,8.3,0,0,1,5.73,0,7.83,7.83,0,0,1,2.56,1.52,7.21,7.21,0,0,1,1.84,2.54,8.38,8.38,0,0,1,.7,3.54V36.84a8.39,8.39,0,0,1-.7,3.57,7.37,7.37,0,0,1-1.84,2.51,8,8,0,0,1-2.56,1.52,8.3,8.3,0,0,1-5.73,0,8,8,0,0,1-2.56-1.52A7.37,7.37,0,0,1,129,40.41a8.39,8.39,0,0,1-.7-3.57ZM133,36.84a3.17,3.17,0,0,0,.95,2.54,3.52,3.52,0,0,0,4.52,0,3.15,3.15,0,0,0,1-2.54V19.33a3.15,3.15,0,0,0-1-2.54,3.52,3.52,0,0,0-4.52,0,3.17,3.17,0,0,0-.95,2.54Z"></path><path class="cls-1" d="M151.34,11.5h4.75V44.67h-4.75Z"></path><path class="cls-1" d="M163.22,11.5h4.56l7.18,20h.09v-20h4.75V44.67h-4.47l-7.27-19.94H168V44.67h-4.75Z"></path><path class="cls-1" d="M186.93,11.5h14.16V16h-9.41v9.74h8.2v4.47h-8.2v9.74h9.41v4.75H186.93Z"></path><path class="cls-1" d="M207,11.5h7.64q8.39,0,8.39,9.74a12.41,12.41,0,0,1-.91,5,7.06,7.06,0,0,1-3.19,3.33L224,44.67h-5l-4.43-14.16h-2.84V44.67H207Zm4.75,14.81h2.7a4.71,4.71,0,0,0,2-.35,2.59,2.59,0,0,0,1.14-1,4.25,4.25,0,0,0,.53-1.6,14.63,14.63,0,0,0,.14-2.22,14.5,14.5,0,0,0-.14-2.21,3.86,3.86,0,0,0-.58-1.63,2.6,2.6,0,0,0-1.23-1,5.57,5.57,0,0,0-2.1-.33h-2.47Z"></path><path class="cls-1" d="M233.19,30.65,226.67,11.5h5l3.82,13.18h.09l3.82-13.18h5l-6.52,19.15v14h-4.75Z"></path><path class="cls-1" d="M40.32,24.74a6.16,6.16,0,0,1-.49-6.52l.07-.11C44.4,9.54,40.44,2.58,37.66,0a.11.11,0,0,0-.14,0L34.64,3.24a.11.11,0,0,0,0,.13,10.08,10.08,0,0,1,2.57,9.14.11.11,0,0,1-.1.08H31.84a10.24,10.24,0,0,0-5.41,2.07.1.1,0,0,0,.06.18h10c-.16.37-.33.75-.54,1.14a11.37,11.37,0,0,0-.56,1.23.1.1,0,0,1-.09.06H24.38a.11.11,0,0,0-.09.05,11.63,11.63,0,0,0-.91,2.45.11.11,0,0,0,.09.13H34.59a.09.09,0,0,1,.09.1,10.32,10.32,0,0,0,0,2.71.09.09,0,0,1-.09.1H23a.1.1,0,0,0-.1.09,24.18,24.18,0,0,0,0,2.82.1.1,0,0,0,.1.09H35.67a.1.1,0,0,1,.08.05,11.13,11.13,0,0,0,1,1.57c.38.51.75,1,1.11,1.5a.1.1,0,0,1-.08.15H23.3a.09.09,0,0,0-.09.1c.07,1.09.11,2.16.09,3.18a.09.09,0,0,0,.09.09H40.23a.12.12,0,0,1,.08,0c.77,1.18,1.46,2.34,2.06,3.49a.1.1,0,0,1-.08.14H23.11a.08.08,0,0,0-.09.08,28.6,28.6,0,0,1-.7,3.55.1.1,0,0,0,.09.12H43.94a.09.09,0,0,1,.09.06,16.32,16.32,0,0,1,.68,3.42.09.09,0,0,1-.09.1H21.12a.1.1,0,0,0-.09.06,24.4,24.4,0,0,1-2.14,3.92.09.09,0,0,0,.08.14H44.35a.1.1,0,0,1,.09.12,18,18,0,0,1-1.35,3.93.09.09,0,0,1-.08.05H15.32a.09.09,0,0,0-.07,0A28.67,28.67,0,0,1,9.15,56a.09.09,0,0,0,0,.17H45.72a.09.09,0,0,0,.08-.05L46.41,55C53.39,42.25,46.14,32.54,40.32,24.74Z"></path><path class="cls-1" d="M10.68,51.08l.44-.33c5.16-4,9.91-11,8.59-23.08-.69-6.33.4-11.15,3.23-14.33a13.26,13.26,0,0,1,8.88-4.13h2a.09.09,0,0,0,.09-.11A6.44,6.44,0,0,0,32.3,5.79l-.37-.33h-.12A16.93,16.93,0,0,0,20.18,10.8c-3.59,4-5,9.82-4.19,17.27C18.05,47.11,3.31,51.23.07,51.9A.1.1,0,0,0,0,52v3.62a.09.09,0,0,0,.11.09,26,26,0,0,0,6.37-2.12l.8-.41a29,29,0,0,0,2.87-1.71Z"></path></g></g></svg>