<svg xmlns="http://www.w3.org/2000/svg" viewBox="0 0 240.67 33.24"><defs><style>.f4fa86a6-75a3-4e10-bde4-ee12b64ef50d{fill-rule:evenodd;}</style></defs><title>Asset 1</title><g id="2ed29374-3214-4114-9e61-dfe17be2b779" data-name="Layer 2"><g id="22eacb9e-82d8-4571-80c8-650e04c3ad59" data-name="Layer 1"><path d="M197.89,21.79c0-4.38-2-7.2-6-7.2a7.67,7.67,0,0,0-3.28.66V29.44a10.83,10.83,0,0,0,2.59.17c5.05,0,6.64-3.47,6.64-7.82m-9.1-9.48a9.85,9.85,0,0,1,6.05-1.84c6,0,9.73,4,9.73,10.91,0,6.33-4.25,11.87-13.19,11.87a31.91,31.91,0,0,1-9.87-1.54V0h7.27Z"></path><path d="M171.92,19.31V18.4c0-3.14-1.27-4.72-4-4.72-2.27,0-3.37,1.24-3.87,3.14a10.05,10.05,0,0,0-.27,2.48Zm-7.74,3.39c0,3.81,2.71,6.17,7,6.17a11,11,0,0,0,5.2-1.14l1.56,4a12.58,12.58,0,0,1-2.42.84,27,27,0,0,1-6.15.63c-6.49,0-12.55-2.49-12.55-11.33,0-4.06,1.71-11.49,11.55-11.49,4.72,0,7.29,1.59,8.84,4.06,1.35,2.19,1.48,5.13,1.48,7.43v.78Z"></path><path d="M75.66,29V22.7s-.41,0-2.14,0a5.67,5.67,0,0,0-3.46.87,3.3,3.3,0,0,0-1.23,2.69c0,2.61,2.09,3.27,4,3.27A7.12,7.12,0,0,0,75.66,29m0,2.55a9.23,9.23,0,0,1-5.51,1.63c-4.59,0-7.73-2.49-7.73-6.66a6.14,6.14,0,0,1,2.8-5.46c2.08-1.36,4.81-1.52,7.53-1.52,1,0,2.16.06,2.78.09v-.88a7.24,7.24,0,0,0-.33-2.52c-.48-1.13-1.62-1.58-3.59-1.58a12.11,12.11,0,0,0-5.52,1.25l-1.62-4.14A17.53,17.53,0,0,1,67.09,11a29.34,29.34,0,0,1,6.15-.61c6.2,0,8.08,2.4,8.79,4.22a16.61,16.61,0,0,1,.49,5.21V32.91H75.66Z"></path><path d="M15.67,15.85c3.85,2,5.93,4.21,5.93,8.22,0,5.81-4.32,9.18-11.82,9.18A28.05,28.05,0,0,1,0,31.72L1.8,27a12.7,12.7,0,0,0,2.12.87,17.33,17.33,0,0,0,4.8.64c3.79,0,5.83-1,5.83-3.52,0-1.51-.78-2.3-3-3.53L6.82,18.92C4.09,17.43,1,15.45,1,11.12,1,5.43,5.18,2.48,12,2.48c2.65,0,6.3.26,8.8,1.37L19.11,8.54a10.79,10.79,0,0,0-1.91-.79,16.08,16.08,0,0,0-4.39-.56c-2,0-4.87.32-4.87,2.94,0,1.5,1.05,2.21,3.72,3.61Z"></path><path d="M31.2,12.37a10.09,10.09,0,0,1,6.33-2c2.31,0,4.93.61,6.45,2.5l.13-.1a12,12,0,0,1,7.43-2.44c1.46,0,6.66.14,8,5.09a15.21,15.21,0,0,1,.38,4.09v13.4H52.59V20.26a13,13,0,0,0-.17-2.76c-.39-1.87-1.82-2.5-4-2.5a8.58,8.58,0,0,0-3.17.58,7.05,7.05,0,0,1,.2.89,22.32,22.32,0,0,1,.19,3.71V32.91H38.35V20.26a13,13,0,0,0-.17-2.76C37.87,15.91,36.75,15,34.34,15a7.72,7.72,0,0,0-3,.54V32.91H24.11V10.84H31.2Z"></path><path d="M93.63,12.74a6.87,6.87,0,0,1,5.15-2.23,9.25,9.25,0,0,1,3.59.71l-1.55,5.64a6.35,6.35,0,0,0-4-1.31,7.21,7.21,0,0,0-3,.57v16.8H86.54V10.84h7.09Z"></path><rect x="207.32" y="10.84" width="7.27" height="22.08"></rect><path d="M211,1.74c2.34,0,4.09,1.32,4.09,3.43s-1.74,3.55-4.23,3.55-4.09-1.32-4.09-3.43,1.74-3.55,4.23-3.55"></path><path d="M112.78,25.22c0,2.06.25,3.4,2.85,3.4h1.16l5.36-.1L117.71,33h-4.22c-3.81,0-6.41-.8-7.52-3.73a14.9,14.9,0,0,1-.48-4.46V14.92h-2.91V11.5l1-.31a6,6,0,0,0,4.15-4.52l.09-.75h5v5h6.87v4h-6.87V25.22Z"></path><path d="M232.28,28l1.35,4.1a20.21,20.21,0,0,1-6.44,1.07c-3.81,0-6.41-.8-7.52-3.73a14.87,14.87,0,0,1-.48-4.46V14.92h-2.91V11.5l1-.31a6,6,0,0,0,4.15-4.52l.09-.75h5v5h6.87v4h-6.87V25.35c0,2.06.24,3.39,2.82,3.39a6.52,6.52,0,0,0,3-.76"></path><path d="M122.26,33l4.32-4.38h9.94a12.91,12.91,0,0,0,5.94-1c2-1,4.43-3.7,4.43-9.81,0-4.81-1.66-8.35-4.3-9.64C141.14,7.43,139.53,7,136.25,7c-.89,0-1.91.06-2.46.09V25.78h-7.42V2.95c2.86-.08,5.63-.22,8.5-.22,6.33,0,10,.53,13,2.12,6.28,3.39,6.79,9.21,6.79,12.6,0,6.77-3,11.75-8.51,14.06-3,1.24-7.38,1.48-11.69,1.48Z"></path><path d="M237.15,7.06a3.52,3.52,0,1,1,3.52-3.52,3.52,3.52,0,0,1-3.52,3.52m0-6.42a2.9,2.9,0,1,0,2.9,2.9,2.9,2.9,0,0,0-2.9-2.9"></path><path class="f4fa86a6-75a3-4e10-bde4-ee12b64ef50d" d="M235.78,5.34h.68V3.64h.41c.36,0,.59,0,.8.37l.73,1.33h.78l-.9-1.52a.74.74,0,0,0-.46-.38h0c.55-.08,1-.41,1-.87,0-.92-.91-1-1.85-1h-1.16ZM236.46,2h.65c.63,0,1,.22,1,.57s-.38.6-1,.6h-.58Z"></path></g></g></svg>