<svg xmlns="http://www.w3.org/2000/svg" viewBox="0 0 91.04 26.98"><defs><style>.cls-1{fill:#1d1d1b;}</style></defs><title>Client Logo Taylor Made</title><g id="Layer_2" data-name="Layer 2"><g id="Layer_1-2" data-name="Layer 1"><path class="cls-1" d="M8.56,8.64h4.21V19a.67.67,0,0,0,.69.7.7.7,0,0,0,.72-.7c0-3.42,0-6.89,0-10.31H18.4a.66.66,0,1,0,0-1.32H8.56A.66.66,0,1,0,8.56,8.64Z"></path><path class="cls-1" d="M90.33,0H.71A.71.71,0,0,0,0,.71V26.27A.71.71,0,0,0,.71,27H90.33a.71.71,0,0,0,.71-.71V.71A.71.71,0,0,0,90.33,0Zm-.71,25.55H1.43V1.43H89.62Z"></path><path class="cls-1" d="M27.59,19.43,32.7,9.25l2.45,4.91-2.39,4.72c-.34.76.91,1.25,1.25.55l1.89-3.76,1.85,3.7c.36.74,1.77.27,1.27-.55l-2.36-4.66,2.47-4.91,5,10.12c.36.74,1.77.27,1.27-.55L39.73,7.57a.67.67,0,0,0-.6-.36.68.68,0,0,0-.63.36l-2.6,5.11L33.31,7.57a.69.69,0,0,0-.61-.36.69.69,0,0,0-.63.36L26.33,18.88C26,19.64,27.25,20.13,27.59,19.43Z"></path><path class="cls-1" d="M55.08,18.93V14.48H62a.59.59,0,0,0,0-1.18H55.08V8.53h7.29a.6.6,0,1,0,0-1.19H54.55a.84.84,0,0,0-.84.81V19A.69.69,0,1,0,55.08,18.93Z"></path><path class="cls-1" d="M74.1,19V15.9h3.4c3.32,0,4.88-1.88,4.88-4.16s-1.54-4.37-4.83-4.37H73.43a.67.67,0,0,0-.7.66V19A.69.69,0,0,0,74.1,19Zm0-10.36h3.47A3.25,3.25,0,0,1,81,11.74c0,1.44-1,2.93-3.53,2.93H74.1Z"></path></g></g></svg>