<svg xmlns="http://www.w3.org/2000/svg" viewBox="0 0 43.81 23.42"><defs><style>.cls-1{fill:#231f20;}</style></defs><title>Client Logo Wilderness Today</title><g id="Layer_2" data-name="Layer 2"><g id="Layer_1-2" data-name="Layer 1"><polygon class="cls-1" points="2.76 17.11 2.2 14.37 1.63 14.37 1.12 17.11 0.64 14.37 0 14.37 0.8 18.62 1.41 18.62 1.92 15.74 2.47 18.62 3.08 18.62 3.8 14.37 3.18 14.37 2.76 17.11"></polygon><rect class="cls-1" x="6.22" y="14.37" width="0.66" height="4.25"></rect><polygon class="cls-1" points="10.09 14.37 9.43 14.37 9.43 18.62 11.39 18.62 11.39 18.01 10.09 18.01 10.09 14.37"></polygon><path class="cls-1" d="M14.75,14.37h-1v4.25h1c.84,0,1.23-.43,1.23-1.33V15.7C16,14.8,15.59,14.37,14.75,14.37Zm.57,2.74c0,.66-.16.9-.63.9h-.32V15h.32c.47,0,.63.23.63.9Z"></path><polygon class="cls-1" points="18.49 18.62 20.41 18.62 20.41 18.01 19.15 18.01 19.15 16.7 20.08 16.7 20.08 16.1 19.15 16.1 19.15 14.98 20.41 14.98 20.41 14.37 18.49 14.37 18.49 18.62"></polygon><path class="cls-1" d="M25,15.59a1.11,1.11,0,0,0-1.22-1.22h-1v4.25h.65V16.87h.4l.56,1.75h.69l-.63-1.93A1.13,1.13,0,0,0,25,15.59Zm-.84.55c-.1.1-.23.13-.51.13h-.24V15h.24c.28,0,.41,0,.51.13a.69.69,0,0,1,.16.51A.7.7,0,0,1,24.18,16.14Z"></path><polygon class="cls-1" points="29.87 18.62 29.87 14.37 29.24 14.37 29.24 17.01 28.17 14.37 27.51 14.37 27.51 18.62 28.13 18.62 28.13 15.79 29.28 18.62 29.87 18.62"></polygon><polygon class="cls-1" points="32.42 18.62 34.34 18.62 34.34 18.01 33.08 18.01 33.08 16.7 34.01 16.7 34.01 16.1 33.08 16.1 33.08 14.98 34.34 14.98 34.34 14.37 32.42 14.37 32.42 18.62"></polygon><path class="cls-1" d="M38.14,16.25a3.17,3.17,0,0,1-.56-.46.63.63,0,0,1-.18-.43.42.42,0,0,1,.43-.43c.27,0,.46.21.56.63l.63-.19a1.2,1.2,0,0,0-1.19-1.06,1,1,0,0,0-1.11,1,1.13,1.13,0,0,0,.24.71,3.12,3.12,0,0,0,.77.69c.5.39.63.56.63.83a.45.45,0,0,1-.48.48c-.35,0-.57-.25-.66-.76l-.63.19a1.22,1.22,0,0,0,1.29,1.19A1.07,1.07,0,0,0,39,17.6a1.25,1.25,0,0,0-.27-.78A3.5,3.5,0,0,0,38.14,16.25Z"></path><path class="cls-1" d="M43.54,16.82a3.66,3.66,0,0,0-.64-.57,3.17,3.17,0,0,1-.56-.46.67.67,0,0,1-.17-.43.41.41,0,0,1,.42-.43c.27,0,.46.21.56.63l.63-.19a1.19,1.19,0,0,0-1.19-1.06,1,1,0,0,0-1.1,1,1.18,1.18,0,0,0,.23.71,3.52,3.52,0,0,0,.78.69c.49.39.63.56.63.83a.46.46,0,0,1-.49.48c-.35,0-.57-.25-.65-.76l-.63.19a1.21,1.21,0,0,0,1.28,1.19,1.07,1.07,0,0,0,1.17-1.08A1.25,1.25,0,0,0,43.54,16.82Z"></path><polygon class="cls-1" points="13.29 22.05 13.78 22.05 13.78 23.4 14.06 23.4 14.06 22.05 14.54 22.05 14.54 21.8 13.29 21.8 13.29 22.05"></polygon><path class="cls-1" d="M17.85,21.77a.8.8,0,0,0-.82.83.82.82,0,0,0,1.64,0A.8.8,0,0,0,17.85,21.77Zm0,1.41a.58.58,0,1,1,.53-.58A.53.53,0,0,1,17.85,23.18Z"></path><path class="cls-1" d="M21.92,21.8h-.6v1.6h.6a.8.8,0,1,0,0-1.6Zm0,1.35H21.6v-1.1h.32a.51.51,0,0,1,.54.55A.52.52,0,0,1,21.92,23.15Z"></path><path class="cls-1" d="M25.78,21.8l-.63,1.6h.31l.12-.31h.75l.12.31h.31l-.63-1.6Zm-.12,1L26,22l.3.8Z"></path><polygon class="cls-1" points="29.76 22.48 29.32 21.8 29 21.8 29.61 22.73 29.61 23.4 29.89 23.4 29.89 22.73 30.51 21.8 30.19 21.8 29.76 22.48"></polygon><path class="cls-1" d="M22.64,10.3a.1.1,0,0,0,.18,0l2.06-4a.25.25,0,0,0,0-.17L21.77.05a.1.1,0,0,0-.18,0l-3.1,6.09a.17.17,0,0,0,0,.17l2.06,4a.1.1,0,0,0,.17,0l1-1.86ZM21.2,6.23l.48-.9.49.9-.49.94Zm1.53,3L22,7.8l.67-1.28h1.44Zm-1.05-8,2.44,4.77H22.67l-.88-1.64a.12.12,0,0,0-.21,0l-.89,1.64H19.25Zm-1,8L19.25,6.52h1.44l.67,1.28Z"></path></g></g></svg>