<svg xmlns="http://www.w3.org/2000/svg" viewBox="0 0 232.79 57.62"><defs><style>.cls-1{fill:#1d1d1b;}</style></defs><title>Client Logo The Wow Company</title><g id="Layer_2" data-name="Layer 2"><g id="Layer_1-2" data-name="Layer 1"><path class="cls-1" d="M77.75.8h8L63.06,57.22H61.29L42.93,11.54,24.37,57.22H22.64L0,.8H8.1L23.59,39.53,39.17.8h7.6L62.43,39.53Z"></path><path class="cls-1" d="M116.28,0q13,0,21.67,8.24a27.34,27.34,0,0,1,8.66,20.67,26.89,26.89,0,0,1-8.74,20.57q-8.73,8.15-22,8.14-12.69,0-21.15-8.14a27.16,27.16,0,0,1-8.47-20.41q0-12.58,8.52-20.83T116.28,0Zm.32,7.64q-9.64,0-15.85,6a20.55,20.55,0,0,0-6.21,15.4,20.18,20.18,0,0,0,6.23,15.12,21.49,21.49,0,0,0,15.58,6A21.54,21.54,0,0,0,132,44.07a20.57,20.57,0,0,0,6.29-15.32,20.1,20.1,0,0,0-6.29-15A21.34,21.34,0,0,0,116.6,7.64Z"></path><path class="cls-1" d="M224.77.8h8L210.08,57.22h-1.77L189.94,11.54,171.38,57.22h-1.72L147,.8h8.1L170.6,39.53,186.18.8h7.61l15.66,38.73Z"></path></g></g></svg>